<?xml version="1.0" encoding="utf-8"?>
<!-- Generator: Adobe Illustrator 22.0.1, SVG Export Plug-In . SVG Version: 6.00 Build 0)  -->
<svg version="1.1" id="Capa_1" xmlns="http://www.w3.org/2000/svg" xmlns:xlink="http://www.w3.org/1999/xlink" x="0px" y="0px"
	 viewBox="0 0 512 512" style="enable-background:new 0 0 512 512;" xml:space="preserve">
<style type="text/css">
	.st0{fill:#FFFFFF;}
</style>
<g>
	<path class="st0" d="M401.3,268.8v-76.7c0.4-58.5-39-97.3-72.8-112.8c-9.7-4.4-19.7-7.8-29.8-10.4V64c0-23.5-19.1-42.7-42.7-42.7
		c-23.5,0-42.7,19.1-42.7,42.7v5.6c-9.1,2.5-18.1,5.7-26.8,9.7c-37.4,17.2-75.2,58.7-75.6,112.6v76.8c0,54.5-19.3,101.3-57.2,139
		c-2.3,2.3-3.1,5.6-2.1,8.6s3.5,5.3,6.7,5.8l81,14c15.1,2.6,29,4.7,42.2,6.5c14.9,29.2,44.1,47.9,76.1,47.9
		c32,0,61.2-18.7,76.1-47.9c13.2-1.7,27-3.9,42-6.5l81-14c3.1-0.5,5.7-2.8,6.7-5.8c1-3,0.1-6.4-2.1-8.6
		C421.4,368.3,401.3,321.5,401.3,268.8z M257.6,473.6c-21.6,0-41.8-10.7-54.8-28.3c19.1,2,36.9,3,54.7,3c17.9,0,35.7-1,54.9-3
		C299.4,462.9,279.2,473.6,257.6,473.6z M372.7,419.4c-16.4,2.8-31.4,5.1-45.6,6.9c0,0,0,0-0.1,0c-6.3,0.8-12.3,1.5-18.3,2.1
		c-0.1,0-0.1,0-0.1,0c-5.5,0.5-10.8,1-16.1,1.4c-1,0.1-2,0.1-3,0.2c-4.6,0.3-9.1,0.5-13.6,0.7c-0.9,0-1.8,0.1-2.7,0.1
		c-10.6,0.4-21.1,0.4-31.7,0c-0.9,0-1.9-0.1-2.9-0.1c-4.4-0.2-8.9-0.4-13.4-0.7c-1.1-0.1-2.1-0.1-3.2-0.2
		c-5.1-0.4-10.3-0.8-15.6-1.3c-0.2,0-0.4,0-0.6-0.1c-5.9-0.6-11.9-1.3-18.1-2.1c0,0-0.1,0-0.1,0c-14.2-1.8-29.3-4.1-45.7-6.9
		l-65.4-11.3c34-38.9,51.2-85.7,51.2-139.3v-76.7c0.3-46.4,33.2-82.2,65.6-97.2c9.7-4.4,19.7-7.8,29.8-10.1c0.1,0,0.2,0,0.3,0
		c21-4.7,43.4-4.9,64.7-0.6c0.1,0,0.2,0,0.3,0c11.1,2.3,22.1,5.8,32.6,10.7c31.5,14.4,63.1,50,62.8,97.2v76.8
		c0,51.5,18.6,99.4,53.9,139.4L372.7,419.4z"/>
	<path class="st0" d="M41,194.5c-3.3-3.3-8.7-3.3-12.1,0C10.3,213.1,0,238,0,264.4s10.3,51.3,28.9,69.9c1.7,1.7,3.8,2.5,6,2.5
		c2.2,0,4.4-0.8,6-2.5c3.3-3.3,3.3-8.7,0-12.1c-15.4-15.4-23.9-36-23.9-57.8S25.6,222,41,206.6C44.3,203.2,44.3,197.8,41,194.5z"/>
	<path class="st0" d="M70.9,317.4c2.2,0,4.4-0.8,6-2.5c3.3-3.3,3.3-8.7,0-12.1c-21.8-21.8-21.8-57.3,0-79.2c3.3-3.3,3.3-8.7,0-12.1
		c-3.3-3.3-8.7-3.3-12.1,0c-28.5,28.5-28.5,74.8,0,103.3C66.5,316.5,68.7,317.4,70.9,317.4z"/>
	<path class="st0" d="M483.1,194.5c-3.3-3.3-8.7-3.3-12.1,0c-3.3,3.3-3.3,8.7,0,12.1c15.4,15.4,23.9,36,23.9,57.8
		s-8.5,42.4-23.9,57.8c-3.3,3.3-3.3,8.7,0,12.1c1.7,1.7,3.8,2.5,6,2.5c2.2,0,4.4-0.8,6-2.5c18.6-18.6,28.9-43.5,28.9-69.9
		C512,238,501.7,213.1,483.1,194.5z"/>
	<path class="st0" d="M435.1,211.6c-3.3,3.3-3.3,8.7,0,12.1c21.8,21.8,21.8,57.3,0,79.2c-3.3,3.3-3.3,8.7,0,12.1
		c1.7,1.7,3.8,2.5,6,2.5s4.4-0.8,6-2.5c28.5-28.5,28.5-74.8,0-103.3C443.8,208.2,438.4,208.2,435.1,211.6z"/>
</g>
</svg>
